<svg width="460" height="461" viewBox="0 0 460 461" fill="none" xmlns="http://www.w3.org/2000/svg" fill-opacity="0.1">
<path d="M386.383 249.425C386.913 245.282 387.882 241.293 389.292 237.457C390.744 233.674 392.416 230.622 394.31 228.299L405.9 235.298C404.215 237.502 402.755 240.025 401.521 242.867C400.334 245.716 399.567 248.497 399.22 251.211C398.922 253.544 398.923 255.238 399.224 256.292C399.572 257.353 400.199 257.941 401.103 258.057C402.151 258.191 403.022 257.625 403.716 256.359C404.404 255.14 405.249 253.07 406.251 250.15C407.554 246.397 408.822 243.293 410.055 240.837C411.336 238.388 413.146 236.345 415.484 234.708C417.87 233.078 420.873 232.494 424.491 232.956C427.634 233.358 430.378 234.604 432.724 236.694C435.069 238.785 436.758 241.662 437.79 245.327C438.815 249.039 439.009 253.394 438.369 258.394C437.931 261.822 437.121 265.13 435.939 268.318C434.799 271.559 433.353 274.35 431.602 276.691L420.038 270.059C423.141 265.472 424.972 260.988 425.532 256.607C426.086 252.275 425.316 249.974 423.221 249.706C422.221 249.579 421.377 250.124 420.689 251.343C420.048 252.567 419.254 254.619 418.305 257.498C417.104 261.216 415.86 264.323 414.573 266.82C413.333 269.323 411.544 271.393 409.206 273.029C406.861 274.714 403.88 275.324 400.261 274.862C397.119 274.46 394.375 273.214 392.029 271.124C389.731 269.039 388.045 266.138 386.972 262.42C385.94 258.756 385.744 254.424 386.383 249.425Z" fill="#929292"/>
<path d="M404.499 326.513L355.284 305.913L361.567 290.903L376.909 297.325C375.718 294.328 375.965 290.816 377.652 286.786C378.986 283.598 380.971 280.969 383.607 278.898C386.269 276.89 389.35 275.682 392.851 275.274C396.378 274.929 400.023 275.544 403.787 277.12C407.55 278.695 410.547 280.86 412.776 283.614C414.987 286.413 416.289 289.456 416.683 292.742C417.102 296.092 416.644 299.361 415.31 302.549C413.438 307.021 410.83 309.832 407.487 310.982L410.476 312.233L404.499 326.513ZM387.84 295.266C387.117 296.992 387.144 298.669 387.92 300.295C388.697 301.921 390.214 303.206 392.472 304.151C394.73 305.097 396.711 305.275 398.414 304.687C400.161 304.118 401.397 302.969 402.119 301.243C402.842 299.516 402.793 297.83 401.972 296.186C401.196 294.56 399.679 293.274 397.421 292.329C395.162 291.384 393.182 291.205 391.479 291.793C389.776 292.381 388.563 293.539 387.84 295.266Z" fill="#929292"/>
<path d="M371.689 370.38L340.884 345.841L350.53 333.733L353.458 336.066C353.191 334.012 353.356 331.996 353.952 330.015C354.585 328.065 355.574 326.245 356.92 324.556C360.03 320.651 363.71 318.458 367.96 317.977C372.247 317.526 376.793 319.214 381.599 323.043L398.606 336.591L388.467 349.318L373.656 337.519C371.554 335.845 369.783 334.986 368.344 334.944C366.904 334.902 365.661 335.538 364.614 336.852C363.627 338.091 363.293 339.513 363.611 341.116C363.967 342.75 365.215 344.419 367.355 346.123L381.828 357.653L371.689 370.38Z" fill="#929292"/>
<path d="M349.473 389.292C343.928 393.419 338.761 395.32 333.972 394.996C329.211 394.709 324.911 391.987 321.07 386.827L308.432 369.846L320.561 360.818L323.656 364.977C322.808 360.702 324.617 356.902 329.083 353.578C331.586 351.715 334.038 350.548 336.44 350.076C338.832 349.672 341.034 349.858 343.048 350.633C345.051 351.476 346.74 352.821 348.116 354.669C350.438 357.788 351.006 361.045 349.823 364.439C348.639 367.833 345.622 371.336 340.77 374.947L335.514 378.859C337.772 381.008 340.672 380.764 344.214 378.127C345.639 377.067 346.911 375.761 348.03 374.21C349.178 372.697 349.985 371.169 350.452 369.625L361.016 375.136C360.037 377.6 358.507 380.085 356.424 382.593C354.331 385.168 352.014 387.401 349.473 389.292ZM331.002 364.356C330.078 365.044 329.437 365.91 329.078 366.955C328.718 368 328.738 369.152 329.137 370.411L330.77 372.606L334.005 370.199C336.662 368.221 337.331 366.347 336.013 364.576C335.468 363.844 334.74 363.429 333.828 363.329C332.907 363.297 331.965 363.639 331.002 364.356Z" fill="#929292"/>
<path d="M307.004 408.39C305.751 412.596 302.567 415.861 297.454 418.183L291.5 405.071C292.76 404.71 293.892 404.301 294.897 403.845C299.967 401.543 301.331 397.813 298.989 392.656L291.755 376.725L306.571 369.997L322.855 405.858L308.76 412.258L307.004 408.39Z" fill="#929292"/>
<path d="M244.743 409.667C244.694 409.432 244.507 408.171 244.182 405.886L270.976 400.35C270.111 399.009 268.938 398.075 267.457 397.548C265.985 397.068 264.262 397.032 262.288 397.44C260.595 397.789 259.229 398.292 258.188 398.948C257.1 399.614 255.982 400.605 254.832 401.921L244.778 395.249C247.684 390.336 252.874 387.107 260.348 385.562C265.002 384.601 269.266 384.602 273.142 385.566C277.026 386.577 280.248 388.411 282.807 391.068C285.365 393.725 287.038 396.958 287.825 400.765C288.621 404.62 288.39 408.246 287.131 411.643C285.835 415.096 283.717 418.009 280.776 420.381C277.788 422.763 274.226 424.381 270.09 425.236C266.188 426.042 262.479 426 258.962 425.109C255.398 424.228 252.365 422.478 249.863 419.858C247.314 417.247 245.607 413.85 244.743 409.667ZM267.705 414.407C269.35 414.067 270.621 413.338 271.518 412.222C272.414 411.105 272.857 409.69 272.846 407.977L260.436 410.541C261.096 412.072 262.058 413.172 263.324 413.841C264.599 414.558 266.06 414.747 267.705 414.407Z" fill="#929292"/>
<path d="M193.745 416.468C190.038 414.951 187.35 412.784 185.679 409.966C183.953 407.189 183.35 404.043 183.868 400.529C184.309 397.538 185.553 394.858 187.6 392.492C189.592 390.165 192.417 388.447 196.074 387.336C199.731 386.226 204.1 386.045 209.181 386.794C212.695 387.312 216.153 388.21 219.555 389.488C222.91 390.758 225.784 392.322 228.179 394.179L220.654 405.733C218.787 404.245 216.736 403.021 214.5 402.061C212.216 401.093 209.982 400.449 207.798 400.127C205.851 399.84 204.235 399.941 202.95 400.431C201.665 400.921 200.931 401.783 200.749 403.018C200.413 405.297 202.216 406.727 206.157 407.308L212.782 408.285L211.259 418.613L202.82 425.011L220.628 427.636L218.759 440.315L181.576 434.834L183.099 424.506L193.745 416.468Z" fill="#929292"/>
<path d="M149.964 404.623C147.135 403.426 144.766 401.694 142.858 399.428C140.95 397.162 139.744 394.593 139.238 391.721C138.733 388.85 139.098 385.955 140.332 383.037C141.697 379.81 143.743 377.314 146.47 375.549C149.153 373.765 152.211 372.817 155.646 372.707C159.08 372.596 162.544 373.279 166.036 374.756C170.501 376.645 174.049 379.162 176.68 382.307C179.266 385.433 180.768 389.091 181.185 393.281C181.601 397.47 180.763 402.04 178.669 406.992C176.425 412.297 173.419 416.445 169.652 419.438C165.84 422.412 161.581 424.103 156.875 424.51C152.124 424.898 147.185 424.007 142.057 421.838C139.272 420.66 136.76 419.207 134.52 417.478C132.262 415.793 130.492 414.002 129.21 412.105L139.474 403.547C141.081 406.155 143.542 408.16 146.858 409.563C149.555 410.703 152.077 410.963 154.425 410.34C156.71 409.743 158.66 408.275 160.275 405.935C157.115 406.631 153.677 406.193 149.964 404.623ZM162.525 386.014C161.111 385.415 159.784 385.349 158.544 385.815C157.305 386.281 156.377 387.244 155.759 388.703C155.142 390.161 155.098 391.498 155.627 392.712C156.137 393.97 157.1 394.898 158.515 395.496C159.929 396.095 161.266 396.139 162.524 395.629C163.763 395.163 164.691 394.2 165.308 392.741C165.925 391.283 165.97 389.946 165.441 388.732C164.912 387.518 163.94 386.612 162.525 386.014Z" fill="#929292"/>
<path d="M132.334 354.503C135.846 357.259 138.324 360.515 139.769 364.273C141.146 368.038 141.394 372.076 140.512 376.388C139.563 380.707 137.399 385.019 134.021 389.324C130.643 393.629 126.984 396.737 123.043 398.648C119.036 400.567 115.054 401.286 111.099 400.806C107.076 400.334 103.309 398.72 99.7974 395.964C96.2857 393.208 93.8412 389.948 92.464 386.182C91.0195 382.425 90.7717 378.387 91.7208 374.067C92.6026 369.756 94.7325 365.448 98.1107 361.143C101.489 356.838 105.182 353.726 109.19 351.807C113.13 349.896 117.111 349.177 121.134 349.649C125.089 350.129 128.823 351.747 132.334 354.503ZM123.934 365.208C120.913 362.837 116.78 364.994 111.535 371.678C106.29 378.361 105.178 382.888 108.198 385.259C111.219 387.63 115.352 385.473 120.597 378.789C125.842 372.106 126.954 367.579 123.934 365.208Z" fill="#929292"/>
<path d="M56.1144 327.969C54.3457 325 53.446 321.848 53.4154 318.514C53.3189 315.164 54.181 311.968 56.0016 308.928C57.7977 305.847 60.4483 303.262 63.9535 301.174C67.4587 299.086 70.9937 297.986 74.5585 297.873C78.0575 297.745 81.2779 298.508 84.2197 300.164C87.0957 301.803 89.4181 304.107 91.1868 307.076C93.4223 310.828 94.1606 314.272 93.4016 317.406L107.69 308.894L116.018 322.873L70.1828 350.178L62.2603 336.879L65.0438 335.221C61.572 334.551 58.5956 332.134 56.1144 327.969ZM82.29 316.901C81.3319 315.293 79.9685 314.317 78.1997 313.974C76.4309 313.631 74.495 314.086 72.3919 315.339C70.2887 316.592 68.9669 318.078 68.4264 319.796C67.8447 321.54 68.0329 323.216 68.9909 324.824C69.949 326.432 71.333 327.396 73.1431 327.714C74.9119 328.057 76.8478 327.602 78.9509 326.349C81.054 325.097 82.3758 323.611 82.9163 321.892C83.4568 320.173 83.2481 318.51 82.29 316.901Z" fill="#929292"/>
<path d="M38.6067 286.407C36.723 279.757 36.7851 274.252 38.7929 269.891C40.7544 265.544 44.8295 262.494 51.018 260.742L71.3848 254.973L75.5053 269.521L70.5175 270.933C74.8147 271.662 77.722 274.705 79.2394 280.062C80.0897 283.064 80.3076 285.771 79.8933 288.183C79.4198 290.562 78.4625 292.555 77.0214 294.16C75.5212 295.732 73.6626 296.833 71.4458 297.46C67.705 298.52 64.4592 297.893 61.7085 295.579C58.9578 293.265 56.7583 289.198 55.1101 283.379L53.3246 277.075C50.5127 278.42 49.7085 281.217 50.912 285.466C51.396 287.175 52.1636 288.828 53.2149 290.426C54.22 292.038 55.361 293.336 56.6378 294.321L47.7286 302.232C45.7745 300.441 43.9963 298.126 42.394 295.287C40.7325 292.415 39.47 289.455 38.6067 286.407ZM68.4838 278.02C68.1698 276.911 67.5884 276.003 66.7395 275.296C65.8906 274.589 64.8069 274.197 63.4884 274.122L60.8559 274.867L61.9547 278.747C62.8573 281.933 64.3708 283.226 66.4952 282.624C67.3727 282.375 68.0201 281.843 68.4373 281.026C68.7953 280.177 68.8108 279.174 68.4838 278.02Z" fill="#929292"/>
<path d="M49.8506 225.07C50.5283 222.927 51.586 221.249 53.0238 220.035C54.4116 218.775 56.0886 218.103 58.0548 218.02C60.7883 217.903 63.1789 218.763 65.2267 220.598C67.2264 222.434 68.7991 224.962 69.9447 228.18C71.0423 231.4 71.6757 235.001 71.8448 238.981C72.132 245.743 71.3857 251.924 69.6057 257.525L58.7132 253.88C60.0267 249.74 60.5735 245.081 60.3535 239.902C60.2802 238.175 60.0063 236.818 59.5319 235.829C59.0575 234.84 58.3647 234.365 57.4536 234.404C56.6863 234.436 56.1689 234.699 55.9015 235.19C55.5842 235.636 55.4489 236.411 55.4958 237.514L55.8777 246.506L46.8139 246.891L46.4961 239.409C46.4452 238.21 46.2407 237.354 45.8826 236.841C45.5224 236.28 44.9587 236.016 44.1914 236.048C43.4241 236.081 42.8649 236.489 42.5138 237.272C42.1628 238.056 42.027 239.383 42.1064 241.253C42.2592 244.85 43.2527 249.012 45.0869 253.738L34.956 257.844C32.3475 251.853 30.925 246.076 30.6887 240.513C30.4382 234.615 31.2155 229.729 33.0208 225.857C34.7782 221.987 37.5032 219.974 41.1959 219.817C42.9223 219.743 44.5502 220.179 46.0797 221.123C47.6091 222.067 48.8661 223.382 49.8506 225.07Z" fill="#929292"/>
<path d="M35.9584 183.864C36.6835 180.485 38.1695 177.564 40.4164 175.1C42.6264 172.58 45.4329 170.826 48.8359 169.838C52.249 168.803 55.9502 168.713 59.9394 169.569C63.9286 170.425 67.2672 172.025 69.9552 174.37C72.6063 176.657 74.446 179.408 75.4743 182.623C76.4657 185.782 76.5988 189.05 75.8737 192.429C74.9573 196.7 73.1544 199.725 70.4653 201.505L86.7271 204.994L83.313 220.904L31.1485 209.71L34.3964 194.575L37.5643 195.254C35.4765 192.401 34.9412 188.604 35.9584 183.864ZM62.668 193.572C63.0608 191.742 62.726 190.099 61.6637 188.644C60.6014 187.188 58.8735 186.204 56.48 185.69C54.0865 185.177 52.1068 185.366 50.5409 186.257C48.9281 187.138 47.9254 188.494 47.5326 190.324C47.1398 192.154 47.4981 193.802 48.6073 195.268C49.6696 196.723 51.3975 197.707 53.791 198.221C56.1846 198.735 58.1642 198.546 59.7301 197.654C61.296 196.763 62.2753 195.402 62.668 193.572Z" fill="#929292"/>
<path d="M51.5949 141.093C54.753 134.945 58.5532 130.961 62.9952 129.141C67.3946 127.3 72.455 127.849 78.1764 130.788L97.0056 140.459L90.0971 153.909L85.4859 151.54C88.1317 155.004 88.1825 159.212 85.6385 164.165C84.2129 166.94 82.5261 169.069 80.5779 170.55C78.6089 171.967 76.55 172.771 74.4012 172.962C72.2316 173.089 70.1221 172.626 68.0726 171.573C64.6142 169.797 62.6683 167.125 62.2348 163.556C61.8013 159.988 62.9662 155.514 65.7296 150.134L68.7232 144.306C65.7494 143.372 63.2536 144.869 61.2359 148.797C60.4245 150.377 59.8582 152.11 59.5372 153.995C59.1734 155.859 59.1224 157.587 59.3842 159.178L47.4729 158.888C47.2655 156.245 47.544 153.339 48.3083 150.17C49.0519 146.937 50.1474 143.911 51.5949 141.093ZM79.1654 155.336C79.6917 154.311 79.8857 153.251 79.7474 152.154C79.609 151.058 79.0835 150.032 78.1708 149.078L75.737 147.828L73.8948 151.414C72.3815 154.36 72.6069 156.338 74.5709 157.347C75.3822 157.763 76.2188 157.815 77.0809 157.503C77.9223 157.126 78.6171 156.403 79.1654 155.336Z" fill="#929292"/>
<path d="M88.4022 97.2126C92.2792 92.8881 96.4527 90.5699 100.923 90.258C105.392 89.9461 109.665 91.6166 113.739 95.2693C116.491 97.7365 118.248 100.666 119.011 104.057C119.77 107.381 119.568 110.842 118.405 114.441C117.242 118.04 115.234 121.429 112.383 124.61C107.705 129.828 102.369 132.652 96.3758 133.081C90.4148 133.474 84.1998 130.771 77.7308 124.971C65.5435 114.045 63.3373 102.268 71.1122 89.6412L81.5583 72.7042L92.918 79.9874L84.0617 94.2883C81.9667 97.6318 80.8606 100.411 80.7436 102.627C80.6586 104.807 81.4887 106.938 83.2338 109.018C83.4752 104.722 85.1981 100.787 88.4022 97.2126ZM103.43 116.584C104.743 115.118 105.27 113.56 105.01 111.909C104.782 110.221 103.989 108.769 102.631 107.552C101.13 106.206 99.5838 105.593 97.9928 105.714C96.4339 105.799 95.0296 106.539 93.7799 107.932C92.4983 109.362 91.9018 110.89 91.9906 112.517C92.0436 114.112 92.8207 115.582 94.3217 116.928C95.7513 118.209 97.3153 118.838 99.0135 118.813C100.708 118.721 102.18 117.978 103.43 116.584Z" fill="#929292"/>
<path d="M143.496 97.4543C139.828 99.8261 136.054 101.238 132.173 101.689C128.307 102.075 124.713 101.512 121.393 100.001C118.046 98.4492 115.304 96.0209 113.167 92.7157C111.029 89.4105 109.953 85.9338 109.938 82.2855C109.896 78.5969 110.857 75.0888 112.821 71.7611C114.825 68.4074 117.661 65.5447 121.329 63.1729C125.038 60.775 128.812 59.3633 132.652 58.9378C136.533 58.4862 140.127 59.0491 143.433 60.6265C146.754 62.1376 149.483 64.5457 151.62 67.8509C153.757 71.1561 154.846 74.653 154.888 78.3416C154.944 81.9639 153.983 85.472 152.005 88.866C150.041 92.1937 147.205 95.0564 143.496 97.4543ZM136.616 86.8131C138.188 85.7966 139.113 84.3983 139.39 82.6181C139.642 80.7976 139.104 78.8595 137.774 76.8038C136.445 74.7481 134.912 73.4818 133.174 73.0048C131.437 72.5278 129.782 72.7975 128.21 73.814C126.638 74.8305 125.713 76.2288 125.435 78.009C125.157 79.7892 125.683 81.7072 127.012 83.7628C128.341 85.8185 129.888 87.105 131.651 87.6223C133.389 88.0993 135.044 87.8296 136.616 86.8131Z" fill="#929292"/>
<path d="M188.331 48.0673L176.951 51.951L185.579 77.2312L170.247 82.4638L161.619 57.1835L150.24 61.0672L146.147 49.0744L184.238 36.0745L188.331 48.0673Z" fill="#929292"/>
<path d="M214.392 58.7935L211.305 59.0321L212.315 72.0971L196.091 73.3512L193.056 34.0844L209.279 32.8303L210.345 46.6132L213.862 46.3413L221.411 31.8925L238.496 30.5718L227.316 50.3563L242.321 69.7776L223.226 71.2537L214.392 58.7935Z" fill="#929292"/>
<path d="M263.724 34.0243C270.523 35.2673 275.436 37.7515 278.464 41.4767C281.5 45.1546 282.439 50.1572 281.283 56.4843L277.476 77.3072L262.602 74.588L263.535 69.4885C260.985 73.0237 256.972 74.2906 251.495 73.2892C248.426 72.7281 245.9 71.7296 243.918 70.2937C241.992 68.8193 240.626 67.0813 239.821 65.0799C239.072 63.0399 238.904 60.8866 239.318 58.6202C240.018 54.7956 242.012 52.1593 245.302 50.7114C248.592 49.2635 253.212 49.0834 259.161 50.1711L265.607 51.3494C265.64 48.2325 263.484 46.277 259.14 45.4828C257.393 45.1634 255.571 45.123 253.673 45.3616C251.784 45.5529 250.115 46.0043 248.668 46.7155L245.498 35.2301C247.967 34.2666 250.829 33.6919 254.084 33.5062C257.394 33.2818 260.607 33.4545 263.724 34.0243ZM258.072 64.5374C259.205 64.7446 260.277 64.6232 261.286 64.1734C262.295 63.7236 263.125 62.9237 263.774 61.7738L264.266 59.0824L260.3 58.3573C257.042 57.7616 255.214 58.5498 254.817 60.7218C254.653 61.6189 254.846 62.4348 255.394 63.1695C255.999 63.8656 256.892 64.3216 258.072 64.5374Z" fill="#929292"/>
<path d="M312.796 48.6097L326.653 57.0029L317.439 72.2139L338.292 64.0531L351.101 71.8121L330.697 105.498L316.84 97.105L326.091 81.8324L305.263 90.0921L292.392 82.2958L312.796 48.6097Z" fill="#929292"/>
<path d="M374.459 112.567L361.673 99.5929L342.648 118.343L331.276 106.805L359.326 79.1597L383.485 103.672L374.459 112.567Z" fill="#929292"/>
<path d="M403.915 133.696C405.662 136.678 406.538 139.837 406.544 143.171C406.616 146.522 405.73 149.711 403.887 152.738C402.069 155.806 399.399 158.371 395.879 160.433C392.358 162.495 388.815 163.569 385.25 163.655C381.75 163.759 378.535 162.971 375.606 161.294C372.742 159.634 370.436 157.313 368.689 154.331C366.482 150.562 365.769 147.113 366.551 143.985L352.2 152.392L343.975 138.351L390.01 111.385L397.835 124.742L395.039 126.379C398.506 127.074 401.464 129.513 403.915 133.696ZM377.658 144.571C378.605 146.186 379.961 147.172 381.727 147.528C383.493 147.884 385.432 147.444 387.545 146.206C389.657 144.969 390.99 143.493 391.543 141.778C392.137 140.039 391.962 138.362 391.015 136.747C390.069 135.131 388.692 134.158 386.885 133.826C385.118 133.47 383.179 133.911 381.067 135.148C378.955 136.385 377.622 137.861 377.069 139.576C376.516 141.291 376.712 142.956 377.658 144.571Z" fill="#929292"/>
</svg>
