<svg width="137" height="61" viewBox="0 0 137 61" fill="none" xmlns="http://www.w3.org/2000/svg">
<rect x="2.26777" y="33.128" width="25.7843" height="25.7843" transform="rotate(-45 2.26777 33.128)" stroke="#5928E5" stroke-width="2.5"/>
<rect x="2.26777" y="27.8719" width="25.7843" height="25.7843" transform="rotate(-45 2.26777 27.8719)" stroke="#5928E5" stroke-width="2.5"/>
<path d="M54.652 27.28C53.1587 27.28 52.0293 26.86 51.264 26.02C50.4987 25.1613 50.116 23.9387 50.116 22.352V21.232H53.028V22.576C53.028 23.8453 53.56 24.48 54.624 24.48C55.1467 24.48 55.5387 24.3307 55.8 24.032C56.08 23.7147 56.22 23.2107 56.22 22.52C56.22 21.6987 56.0333 20.98 55.66 20.364C55.2867 19.7293 54.596 18.9733 53.588 18.096C52.3187 16.976 51.432 15.968 50.928 15.072C50.424 14.1573 50.172 13.1307 50.172 11.992C50.172 10.4427 50.564 9.248 51.348 8.408C52.132 7.54933 53.2707 7.12 54.764 7.12C56.2387 7.12 57.3493 7.54933 58.096 8.408C58.8613 9.248 59.244 10.4613 59.244 12.048V12.86H56.332V11.852C56.332 11.18 56.2013 10.6947 55.94 10.396C55.6787 10.0787 55.296 9.92 54.792 9.92C53.7653 9.92 53.252 10.5453 53.252 11.796C53.252 12.5053 53.4387 13.168 53.812 13.784C54.204 14.4 54.904 15.1467 55.912 16.024C57.2 17.144 58.0867 18.1613 58.572 19.076C59.0573 19.9907 59.3 21.064 59.3 22.296C59.3 23.9013 58.8987 25.1333 58.096 25.992C57.312 26.8507 56.164 27.28 54.652 27.28ZM70.138 28.82C68.738 28.82 67.8793 28.1947 67.562 26.944C66.9833 27.168 66.302 27.28 65.518 27.28C64.006 27.28 62.8486 26.8507 62.046 25.992C61.2433 25.1333 60.842 23.92 60.842 22.352V12.048C60.842 10.48 61.2433 9.26667 62.046 8.408C62.8486 7.54933 64.006 7.12 65.518 7.12C67.03 7.12 68.1873 7.54933 68.99 8.408C69.7926 9.26667 70.194 10.48 70.194 12.048V22.352C70.194 23.6587 69.9046 24.732 69.326 25.572C69.438 25.7587 69.578 25.88 69.746 25.936C69.914 25.992 70.1566 26.02 70.474 26.02H70.95V28.82H70.138ZM65.518 24.48C66.582 24.48 67.114 23.836 67.114 22.548V11.852C67.114 10.564 66.582 9.92 65.518 9.92C64.454 9.92 63.922 10.564 63.922 11.852V22.548C63.922 23.836 64.454 24.48 65.518 24.48ZM76.7569 27.28C75.2636 27.28 74.1249 26.86 73.3409 26.02C72.5569 25.1613 72.1649 23.9387 72.1649 22.352V7.4H75.2449V22.576C75.2449 23.248 75.3756 23.7333 75.6369 24.032C75.9169 24.3307 76.3089 24.48 76.8129 24.48C77.3169 24.48 77.6996 24.3307 77.9609 24.032C78.2409 23.7333 78.3809 23.248 78.3809 22.576V7.4H81.3489V22.352C81.3489 23.9387 80.9569 25.1613 80.1729 26.02C79.3889 26.86 78.2502 27.28 76.7569 27.28ZM85.8678 7.4H90.0398L93.2318 27H90.1518L89.5918 23.108V23.164H86.0918L85.5318 27H82.6758L85.8678 7.4ZM89.2278 20.504L87.8558 10.816H87.7998L86.4558 20.504H89.2278ZM94.7261 7.4H99.2901C100.877 7.4 102.034 7.77333 102.762 8.52C103.49 9.248 103.854 10.3773 103.854 11.908V13.112C103.854 15.1467 103.182 16.4347 101.838 16.976V17.032C102.585 17.256 103.107 17.7133 103.406 18.404C103.723 19.0947 103.882 20.0187 103.882 21.176V24.62C103.882 25.18 103.901 25.6373 103.938 25.992C103.975 26.328 104.069 26.664 104.218 27H101.082C100.97 26.6827 100.895 26.384 100.858 26.104C100.821 25.824 100.802 25.32 100.802 24.592V21.008C100.802 20.112 100.653 19.4867 100.354 19.132C100.074 18.7773 99.5795 18.6 98.8701 18.6H97.8061V27H94.7261V7.4ZM98.9261 15.8C99.5421 15.8 99.9995 15.6413 100.298 15.324C100.615 15.0067 100.774 14.4747 100.774 13.728V12.216C100.774 11.5067 100.643 10.9933 100.382 10.676C100.139 10.3587 99.7475 10.2 99.2061 10.2H97.8061V15.8H98.9261ZM106.019 7.4H114.419V10.2H109.099V15.38H113.327V18.18H109.099V24.2H114.419V27H106.019V7.4Z" fill="black"/>
<path d="M55.016 51.28C53.504 51.28 52.356 50.86 51.572 50.02C50.8067 49.18 50.424 47.976 50.424 46.408V44.812H53.336V46.548C53.336 47.836 53.868 48.48 54.932 48.48C55.4547 48.48 55.8467 48.3213 56.108 48.004C56.388 47.668 56.528 47.0893 56.528 46.268V44.672C56.528 43.776 56.3693 43.1413 56.052 42.768C55.7347 42.376 55.2213 42.18 54.512 42.18H53.476V39.38H54.596C55.212 39.38 55.6693 39.2213 55.968 38.904C56.2853 38.5867 56.444 38.0547 56.444 37.308V35.88C56.444 35.208 56.304 34.7133 56.024 34.396C55.744 34.0787 55.3707 33.92 54.904 33.92C53.9147 33.92 53.42 34.5267 53.42 35.74V37.028H50.508V35.992C50.508 34.424 50.8907 33.22 51.656 32.38C52.44 31.54 53.56 31.12 55.016 31.12C56.4907 31.12 57.6107 31.54 58.376 32.38C59.1413 33.2013 59.524 34.396 59.524 35.964V36.664C59.524 37.728 59.3467 38.5867 58.992 39.24C58.6373 39.8747 58.0867 40.332 57.34 40.612V40.668C58.1427 40.9667 58.7213 41.452 59.076 42.124C59.4307 42.796 59.608 43.6547 59.608 44.7V46.436C59.608 48.004 59.216 49.208 58.432 50.048C57.6667 50.8693 56.528 51.28 55.016 51.28ZM66.3949 51.28C64.8829 51.28 63.7256 50.8507 62.9229 49.992C62.1203 49.1333 61.7189 47.92 61.7189 46.352V36.216C61.7189 32.8187 63.2869 31.12 66.4229 31.12C67.9163 31.12 69.0549 31.5493 69.8389 32.408C70.6229 33.248 71.0149 34.4613 71.0149 36.048V36.412H68.1029V35.852C68.1029 34.564 67.5709 33.92 66.5069 33.92C65.9283 33.92 65.4989 34.0973 65.2189 34.452C64.9389 34.8067 64.7989 35.432 64.7989 36.328V40.08H64.8549C65.3963 38.9413 66.3296 38.372 67.6549 38.372C68.7749 38.372 69.6243 38.7547 70.2029 39.52C70.7816 40.2853 71.0709 41.396 71.0709 42.852V46.352C71.0709 47.92 70.6696 49.1333 69.8669 49.992C69.0643 50.8507 67.9069 51.28 66.3949 51.28ZM66.3949 48.48C67.4589 48.48 67.9909 47.8453 67.9909 46.576V43.104C67.9909 41.816 67.4589 41.172 66.3949 41.172C65.3309 41.172 64.7989 41.816 64.7989 43.104V46.576C64.7989 47.8453 65.3309 48.48 66.3949 48.48ZM77.5219 51.28C76.0099 51.28 74.8525 50.8507 74.0499 49.992C73.2472 49.1333 72.8459 47.92 72.8459 46.352V36.048C72.8459 34.48 73.2472 33.2667 74.0499 32.408C74.8525 31.5493 76.0099 31.12 77.5219 31.12C79.0339 31.12 80.1912 31.5493 80.9939 32.408C81.7965 33.2667 82.1979 34.48 82.1979 36.048V46.352C82.1979 47.92 81.7965 49.1333 80.9939 49.992C80.1912 50.8507 79.0339 51.28 77.5219 51.28ZM77.5219 48.48C78.5859 48.48 79.1179 47.836 79.1179 46.548V35.852C79.1179 34.564 78.5859 33.92 77.5219 33.92C76.4579 33.92 75.9259 34.564 75.9259 35.852V46.548C75.9259 47.836 76.4579 48.48 77.5219 48.48Z" fill="#5928E5"/>
</svg>
